<?xml version="1.0" encoding="UTF-8"?>
<svg width="50px" height="47px" viewBox="0 0 50 47" version="1.1" xmlns="http://www.w3.org/2000/svg" xmlns:xlink="http://www.w3.org/1999/xlink">
    <!-- Generator: Sketch 48.1 (47250) - http://www.bohemiancoding.com/sketch -->
    <title>Forma_1-2</title>
    <desc>Created with Sketch.</desc>
    <defs></defs>
    <g id="Главная" stroke="none" stroke-width="1" fill="none" fill-rule="evenodd" transform="translate(-391.000000, -844.000000)">
        <g id="benefits" transform="translate(0.000000, 640.000000)" fill="#464646" fill-rule="nonzero">
            <g id="Group" transform="translate(183.000000, 80.000000)">
                <g id="Блок-2" transform="translate(0.000000, 122.000000)">
                    <g id="2" transform="translate(177.000000, 2.000000)">
                        <path d="M74.9,26.5120407 L69.284,32.1210407 L67.907,30.7440407 C67.575629,30.4126697 67.038371,30.4126697 66.707,30.7440407 C66.375629,31.0754117 66.375629,31.6126697 66.707,31.9440407 L68.683,33.9190407 C68.841799,34.0787927 69.057749,34.1686207 69.283,34.1686207 C69.508251,34.1686207 69.724201,34.0787927 69.883,33.9190407 L76.094,27.7110407 C76.425095,27.3813267 76.426214,26.8456347 76.0965,26.5145407 C75.766786,26.1834457 75.231095,26.1823267 74.9,26.5120407 Z M53.558,15.5550407 C53.716799,15.7147927 53.932749,15.8046207 54.158,15.8046207 C54.383251,15.8046207 54.599201,15.7147927 54.758,15.5550407 L61.573,8.73904067 C61.787359,8.52468067 61.871076,8.21224567 61.792615,7.91942467 C61.714154,7.62660467 61.485436,7.39788567 61.192615,7.31942467 C60.899795,7.24096367 60.587359,7.32468067 60.373,7.53904067 L54.157,13.7560407 L52.585,12.1840407 C52.253629,11.8526697 51.716371,11.8526697 51.385,12.1840407 C51.053629,12.5154117 51.053629,13.0526697 51.385,13.3840407 L53.558,15.5550407 Z M44.669,34.1550407 C44.337521,33.8239297 43.800479,33.8239297 43.469,34.1550407 L39.875,37.7490407 L39.141,37.0130407 C38.809629,36.6816697 38.272371,36.6816697 37.941,37.0130407 C37.609629,37.3444117 37.609629,37.8816697 37.941,38.2130407 L39.275,39.5480407 C39.433799,39.7077927 39.649749,39.7976207 39.875,39.7976207 C40.100251,39.7976207 40.316201,39.7077927 40.475,39.5480407 L44.667,35.3560407 C44.827604,35.1968197 44.917865,34.9799837 44.917677,34.7538317 C44.917489,34.5276797 44.826869,34.3109937 44.666,34.1520407 L44.669,34.1550407 Z M78.459,18.9210407 L78.2,18.9210407 L78.2,3.55404067 C78.19709,2.60749867 77.817872,1.70097067 77.145942,1.03429267 C76.474012,0.367614668 75.564536,-0.00447733216 74.618,4.06678425e-05 L35.1,4.06678425e-05 C33.138094,0.00224466784 31.548204,1.59213367 31.546,3.55404067 L31.546,24.7050407 C31.54838,25.6516637 31.927258,26.5584517 32.599059,27.2253747 C33.270859,27.8922977 34.180384,28.2645587 35.127,28.2600407 L52.172,28.2600407 L51.388,30.8940407 C50.969973,30.6120247 50.477261,30.4612517 49.973,30.4610407 L33.541,30.4610407 C32.138396,30.4637927 31.002201,31.6004357 31,33.0030407 L31,40.7100407 C31.001653,42.1127107 32.13833,43.2493877 33.541,43.2510407 L49.973,43.2510407 C51.376061,43.2499387 52.513346,42.1131007 52.515,40.7100407 L52.515,40.2100407 L61.115,40.2100407 L61.115,43.6970407 C61.117204,45.0998727 62.254167,46.2363887 63.657,46.2380407 L78.457,46.2380407 C79.858893,46.2374947 80.996143,45.1029277 81,43.7010407 L81,21.4600407 C80.996697,20.0583797 79.860663,18.9232397 78.459,18.9210407 Z M79.305,21.4620407 L79.305,40.4780407 L62.805,40.4780407 L62.805,21.4600407 C62.8061,20.9921587 63.185119,20.6131397 63.653,20.6120407 L78.453,20.6120407 C78.920718,20.6131417 79.29945,20.9923207 79.3,21.4600407 L79.305,21.4620407 Z M61.113,30.2210407 L61.113,34.3470407 L60.457,34.2160407 C59.748063,34.0733697 59.185618,33.5335317 59.014,32.8310407 L57.903,28.2650407 L61.112,28.2650407 L61.112,30.2210407 L61.112,30.2210407 L61.113,30.2210407 Z M35.1,1.69404067 L74.648,1.69404067 C75.674793,1.69514267 76.506898,2.52724767 76.508,3.55404067 L76.508,18.9210407 L63.654,18.9210407 C62.372192,18.9246767 61.294629,19.8842267 61.143,21.1570407 L33.243,21.1570407 L33.243,3.55704067 C33.242204,3.06373767 33.437404,2.59032267 33.785659,2.24094267 C34.133915,1.89156167 34.606697,1.69483567 35.1,1.69404067 L35.1,1.69404067 Z M35.1,26.5660407 C34.072817,26.5649377 33.240551,25.7322237 33.24,24.7050407 L33.24,22.8490407 L61.113,22.8490407 L61.113,26.5660407 L35.1,26.5660407 Z M32.694,40.7110407 L32.694,33.0030407 C32.6951,32.5357117 33.073671,32.1571397 33.541,32.1560407 L47.541,32.1560407 L47.541,41.5560407 L33.541,41.5560407 C33.074222,41.5554927 32.695651,41.1778157 32.694,40.7110407 L32.694,40.7110407 Z M50.821,40.7110407 C50.819351,41.1785307 50.440492,41.5569437 49.973,41.5580407 L49.234,41.5580407 L49.234,32.1580407 L49.973,32.1580407 C50.440492,32.1591377 50.819351,32.5375497 50.821,33.0050407 L50.821,40.7130407 L50.821,40.7110407 Z M52.515,38.5200407 L52.515,33.0030407 C52.510971,32.8880557 52.499278,32.7734687 52.48,32.6600407 C52.600709,32.5628537 52.691526,32.4335617 52.742,32.2870407 L53.942,28.2600407 L56.162,28.2600407 L57.369,33.2260407 C57.69783,34.5672777 58.771488,35.5980837 60.125,35.8720407 L61.114,36.0720407 L61.114,38.5210407 L52.514,38.5210407 L52.515,38.5200407 Z M78.459,44.5480407 L63.659,44.5480407 C63.191443,44.5474897 62.812551,44.1685967 62.812,43.7010407 L62.812,42.1690407 L79.312,42.1690407 L79.312,43.7010407 C79.311738,43.9266397 79.221592,44.1428357 79.061507,44.3017947 C78.901422,44.4607527 78.684595,44.5493707 78.459,44.5480407 L78.459,44.5480407 Z" id="Forma_1-2"></path>
                    </g>
                </g>
            </g>
        </g>
    </g>
</svg>