<svg id="Layer_1" data-name="Layer 1" xmlns="http://www.w3.org/2000/svg" viewBox="0 0 580.82 139.41"><defs><style>.cls-1{fill:#2a3491;fill-rule:evenodd;}</style></defs><title>ovva</title><path class="cls-1" d="M129.52,252.92v0l.1-.09h0s-.08,0-.1.07Z" transform="translate(-129.52 -188.68)"/><path class="cls-1" d="M260.72,265.92c-7.86-15.3-15.43-30.92-23.16-46.31-3.92-7.8-6.76-15.59-13-21.88A30.72,30.72,0,0,0,199,189c-21.07,2.24-26.14,15.35-35,34.52-6.24,13.58-16.21,32.55-23.22,46.58-4.49,9-8.76,15.35-8.73,25.87,0,9.53,3.4,18,10.57,24.37,8.25,7.32,16.93,7.57,27.3,7.6h69.5c20.8,0,34.76-16.94,31.53-37.43C269.7,282.27,264.58,273.44,260.72,265.92Zm-5.94,29.75c-.41,7.17-4.4,12.79-11.31,15.11-4.74,1.59-20,.87-25.88.87H191.17c-8.44,0-18.49.5-26.73,0a16.8,16.8,0,0,1-14.86-11.56c-2.64-7.84,1.49-13.58,4.84-20.28,5.86-11.72,11.61-23.9,17.72-35.45,3.63-6.85,14.1-30.85,18.47-34.7a16.57,16.57,0,0,1,19.67-1.91c5.31,3.09,8.48,10.31,10.93,15.81,2.59,5.81,5.91,11.91,8.8,17.63l17.71,35.46C250.66,282.52,255.16,289,254.78,295.67Z" transform="translate(-129.52 -188.68)"/><path class="cls-1" d="M578.47,188.69H562.16c-.66,8.52-10.45,24-14.37,32.6-2.36,5.15-5.32,10.47-7.92,15.57-1.86,3.66-6,13-7.94,15.87-2.45,3.64-19.63,39.31-23.71,47.07-3.06,5.82-5.66,9.81-12.67,11.13-15.21,2.85-19.25-10.82-24.62-21.56-7.53-15.07-16.43-32.18-23.51-47.27-2.28-4.85-6.34-11.16-7.75-16.07-1.67-5.82.51-13.39,5.4-17.08s4.18-.87,4.19-7.55q0-6,0-12.05c-7.34.33-14.11,4.42-19,9.71-5.24,5.68-7.47,13.4-7.72,21-.28,8.39,2.8,14.94,6.43,22.2,3.23,6.48,6.49,12.84,9.65,19.38,6.15,12.73,12.88,25.5,19.25,38.16,4.61,9.16,3.88,9.82,10.59,18.12,4,4.91,12.58,9.25,18.82,9.69,18.73,1.33,27.91-5.06,35.93-21.27,15.88-32.05,32.18-63.69,48.17-95.68C575.2,203.07,578.45,197.54,578.47,188.69Z" transform="translate(-129.52 -188.68)"/><path class="cls-1" d="M695.05,290.13C683.57,267,671,243.41,659.81,220.34h0c-3.31-6.85-7.45-16.86-12.78-22.12-13.61-13.42-36.66-12.76-48.66,2.41-4.34,5.48-8.92,16.18-12.16,22.74-3.84,7.76-7.76,15.52-11.64,23.26l-11.63,23.27c-4.37,8.73-8.92,15.64-8.79,25.84.12,9.72,2.88,17.43,10,24.14,7.93,7.46,16.91,8,27.16,8.07,23.11.13,46.38.15,69.48,0a37,37,0,0,0,.14-3.71l-.14-12.59H605.67c-6.51,0-20.58,1.07-25.91-1.82a16.92,16.92,0,0,1-8.71-18.45c.8-3.78,6.78-14.41,8.84-18.55l18.37-37.08c3-6.17,6.21-12.31,9.25-18.47,3.2-6.51,7.51-11.7,15.42-11.94,7.71-.24,13.15,3.94,16.44,10.63,6.07,12.35,12.32,24.66,18.48,37,3.08,6.14,6.52,12.15,9.46,18.26l18.48,37c3,6.05,7.45,13,7.94,19.79,2.81,0,5.66,0,8.47,0,1.69,0,7.15.66,7.85-.73C712.52,322.43,697.39,294.83,695.05,290.13Z" transform="translate(-129.52 -188.68)"/><path class="cls-1" d="M394.86,205.54c-2.64,5.28-5.08,10.76-7.9,15.91-5.59,10.21-10,21.35-15.86,31.43-3.48,6-12.12,24.1-15.82,31.48-2.6,5.21-5.34,10.39-7.87,15.62-2.89,6-5.94,9.65-12.81,11-15,2.93-19.28-11.58-24.56-22l-23.6-47.18c-2.27-4.47-6.34-11.67-7.53-16.27-1.49-5.73.64-12.94,5.51-16.54s4.17-1,4.19-7.55q0-6,0-12.05c-4.64,0-10.4,2.57-14.22,5.35-1.29.95-2.6,2.39-3.72,3.13-10.78,12.15-11.29,26.46-4.12,40.65l13.36,27.08c6.1,12,11.87,24.24,18.13,36,1.61,3,2.88,6.26,4.51,9.19C310.11,324.3,324,330.13,339.22,327c15.8-3.24,20.3-14.59,26.72-27.43q9-18,18.05-36.09c6-12,12.41-23.8,18.25-35.9,2.92-6.05,6-12,9.05-18,3.61-7.15,6.47-12.58,6.51-20.89H401.5C401.12,195.27,397.73,199.81,394.86,205.54Z" transform="translate(-129.52 -188.68)"/><path class="cls-1" d="M253.15,326l.1-.1-.06,0S253.14,326,253.15,326Z" transform="translate(-129.52 -188.68)"/></svg>