<svg viewBox="0 0 67 30" xmlns="http://www.w3.org/2000/svg"><title>new logo</title><desc>Created with Sketch.</desc><defs/><g fill="none" fill-rule="evenodd"><path d="m66.29 12.628h-5.147v10.09c0 2.328.818 3.268 2.737 3.268.694 0 1.593-.164 2.247-.491l.123 3.146c-.899.326-2.084.531-3.268.531-3.635 0-5.636-2.043-5.636-6.05v-10.497h-3.718v-3.145h3.718v-5.556h3.798v5.556h5.147v3.145m-16.876 16.216h-3.839v-19.362h3.839v19.362m-1.92-23.896c-1.389 0-2.532-1.103-2.532-2.451 0-1.389 1.144-2.492 2.532-2.492 1.389 0 2.574 1.063 2.574 2.492 0 1.389-1.185 2.451-2.574 2.451m-19.868 12.82h.122l8.128-8.286h4.864l-8.679 8.782 9.813 10.579h-5.384l-8.742-9.888h-.122v9.888h-3.839v-28.844h3.839v17.768" fill="#fff"/><path d="m13.806 28.844c-.082-.981-.163-2.369-.163-3.186h-.082c-.981 2.042-3.513 3.717-6.331 3.717-4.983 0-7.23-3.554-7.23-7.884v-12.01h3.84v10.702c0 3.186.858 5.964 4.411 5.964 3.064 0 5.188-2.532 5.188-6.372v-10.294h3.839v15.196c0 1.021.041 2.9.164 4.166h-3.636" fill="#338fff"/></g></svg>